<svg data-v-423bf9ae="" xmlns="http://www.w3.org/2000/svg" viewBox="0 0 119.84835374292638 60" class="font"><!----><!----><defs data-v-423bf9ae=""><linearGradient data-v-423bf9ae="" gradientTransform="rotate(25)" id="643b3987-ef4b-451c-9c0d-44bc0d7139df" x1="0%" y1="0%" x2="100%" y2="0%"><stop data-v-423bf9ae="" offset="0%" style="stop-color: rgb(0, 21, 214); stop-opacity: 1;"></stop><stop data-v-423bf9ae="" offset="100%" style="stop-color: rgb(9, 137, 251); stop-opacity: 1;"></stop></linearGradient></defs><g data-v-423bf9ae="" id="ed0c5e89-6103-4d3a-9a91-03dc417d7555" fill="url(#643b3987-ef4b-451c-9c0d-44bc0d7139df)" transform="matrix(5.0547595415229125,0,0,5.0547595415229125,-2.8812132598280797,-12.535804236225871)"><path d="M7.34 8.95L5.03 8.95L5.03 11.21Q5.03 11.83 5.19 12.05Q5.35 12.28 5.64 12.28L5.64 12.28Q6.03 12.28 6.60 12.17Q7.17 12.05 7.22 12.01L7.22 12.01L7.22 14Q7 14.03 6.43 14.09Q5.85 14.15 5.26 14.15L5.26 14.15Q3.96 14.15 3.25 13.78Q2.53 13.41 2.53 12.29L2.53 12.29L2.53 8.95L0.57 8.95L0.57 7L2.53 7L2.53 4.48L5.03 4.48L5.03 7L7.34 7L7.34 8.95ZM16.79 12.98L15.34 14.35L14.48 13.50Q13.62 14.15 12.46 14.15L12.46 14.15Q10.84 14.15 10.04 13.59Q9.24 13.02 9.24 11.86L9.24 11.86Q9.24 10.68 10.06 10.13Q10.88 9.58 12.74 9.58L12.74 9.58L13.40 9.58Q13.38 9.21 13.22 9.00Q13.05 8.78 12.60 8.78L12.60 8.78Q11.96 8.78 11.58 8.94Q11.20 9.10 10.91 9.42L10.91 9.42L9.42 8.01Q10.07 7.36 10.88 7.10Q11.70 6.83 12.77 6.83L12.77 6.83Q14.15 6.83 15.03 7.40Q15.90 7.97 15.90 9.03L15.90 9.03L15.90 12.10L16.79 12.98ZM11.65 11.82Q11.65 11.94 11.69 12.03Q11.73 12.11 11.96 12.18Q12.19 12.25 12.70 12.25L12.70 12.25Q13.12 12.25 13.40 12.10L13.40 12.10L13.40 11.14L13.22 11.14Q11.65 11.14 11.65 11.82L11.65 11.82ZM21.28 5.98Q20.55 5.98 20.04 5.47Q19.53 4.96 19.53 4.23L19.53 4.23Q19.53 3.49 20.04 2.98Q20.55 2.48 21.28 2.48L21.28 2.48Q22.02 2.48 22.53 2.98Q23.03 3.49 23.03 4.23L23.03 4.23Q23.03 4.96 22.53 5.47Q22.02 5.98 21.28 5.98L21.28 5.98ZM22.53 12.05L24.28 12.05L24.28 14L20.02 14L20.02 8.95L17.78 8.95L17.78 7L22.53 7L22.53 12.05Z"></path></g><!----><!----></svg>